<svg width="50" height="50" viewBox="0 0 50 50" fill="none" xmlns="http://www.w3.org/2000/svg">
<path d="M48.2423 19.6289L46.7774 14.5996L42.7734 8.78905L37.5489 4.49219L31.2011 1.95308L25.7813 1.3183L19.4336 2.09956L12.5976 4.78516L7.66597 8.5449L3.95506 13.2324L1.85541 19.5801V23.1445L5.71281 23.4863L16.5038 25L18.3593 20.6055L22.9492 18.0664H25.6348L28.1251 18.457L31.3476 20.6055L33.9844 24.6582L48.4864 23.0468L48.2423 19.6289Z" fill="#E74C3C"/>
<path d="M33.3008 28.1739L32.8125 28.6621L31.2011 31.9335L28.2227 33.8867L25.4151 34.1308L23.0468 33.6914L21.5331 33.2031L19.5313 31.9335L18.3105 30.4688L17.041 28.1739L14.6973 27.7344L7.373 27.002L1.85542 26.5625L1.46478 27.8321L3.95507 36.5723L10.5468 44.1406L21.4355 48.6329L29.7852 48.877L35.9375 46.7285L42.2851 41.748L47.1192 34.5215L49.3652 26.0422L33.3008 28.1739Z" fill="#F5F7FA"/>
<path d="M49.3652 23.291L45.8496 23.584L33.7402 25.3418L32.959 24.5605L32.2265 22.8515L30.9082 20.2636L27.2461 18.4081H25L20.7908 19.2596L18.5058 21.289L17.0898 25H13.037L1.46478 23.8281L1.6601 26.0422L3.90624 26.5137L13.4689 27.6124L16.8434 28.1373L17.9687 30.8106L20.459 33.0566L22.7051 33.9828H27.112C27.112 33.9828 29.9806 32.2265 30.2095 32.08C30.4368 31.9335 33.3009 28.1739 33.3009 28.1739L34.5216 27.5391L47.3146 26.0422L49.6094 25.293L49.3652 23.291Z" fill="#434A54"/>
<path d="M28.9917 26.0315C28.9917 28.1647 27.2614 29.895 25.1281 29.895C22.9942 29.895 21.2646 28.1647 21.2646 26.0315C21.2646 23.8982 22.9942 22.1679 25.1281 22.1679C27.2614 22.1679 28.9917 23.8983 28.9917 26.0315Z" fill="#F5F7FA"/>
<path d="M48.0347 15.268C46.7758 12.2925 44.9737 9.61913 42.6788 7.3227C40.3823 5.02627 37.7076 3.22565 34.732 1.96537C31.6497 0.66222 28.3753 0 25 0C21.6255 0 18.3509 0.66222 15.2688 1.96537C12.2917 3.22565 9.61757 5.02627 7.3227 7.3227C5.02705 9.61913 3.22418 12.2925 1.96537 15.268C0.661439 18.3517 0 21.6247 0 25C0 28.3753 0.661439 31.6497 1.96537 34.732C3.22418 37.709 5.02705 40.3823 7.3227 42.6788C9.61767 44.9737 12.2917 46.7758 15.2688 48.0347C18.351 49.3392 21.6255 50 25 50C28.3753 50 31.6497 49.3392 34.732 48.0347C37.7076 46.7758 40.3823 44.9737 42.6788 42.6788C44.9737 40.3823 46.7758 37.709 48.0347 34.732C49.3378 31.6497 50 28.3753 50 25C50 21.6247 49.3378 18.3517 48.0347 15.268ZM47.9157 25C47.9157 25.0641 47.9157 25.1267 47.9141 25.1893C46.8979 25.383 44.9646 25.7203 42.282 26.0544C40.2541 26.3077 37.5625 26.5869 34.3444 26.7899C34.3658 26.5442 34.3749 26.294 34.3749 26.0422C34.3749 25.9461 34.3733 25.8515 34.3703 25.7553C41.0308 25.3418 45.7549 24.585 47.9003 24.1882C47.9096 24.4583 47.9157 24.7284 47.9157 25ZM8.79509 8.79509C13.1241 4.46776 18.8789 2.08432 25 2.08432C31.1218 2.08432 36.8759 4.46776 41.2049 8.79509C44.841 12.4329 47.1039 17.076 47.7357 22.0977C46.6798 22.296 44.8151 22.6134 42.2821 22.9294C40.1978 23.1903 37.4116 23.4771 34.0728 23.6816C33.0246 19.6503 29.3548 16.6671 25 16.6671C20.6459 16.6671 16.9754 19.6502 15.9263 23.6816C12.5884 23.4771 9.80224 23.1903 7.71861 22.9294C6.84886 22.8211 6.0592 22.7127 5.35264 22.6089C5.87678 18.2281 7.83677 14.1738 11.0053 11.0046C14.7431 7.26772 19.7136 5.20928 25 5.20928C25.2663 5.20928 25.5333 5.10713 25.7362 4.9041C26.1437 4.49667 26.1437 3.83748 25.7362 3.43005C25.5333 3.22711 25.2663 3.12487 25 3.12487C19.1566 3.12487 13.6635 5.40147 9.53212 9.53202C6.04856 13.0156 3.88631 17.4681 3.29352 22.2807C2.89371 22.2135 2.54966 22.151 2.26508 22.0976C2.89527 17.0761 5.15899 12.4329 8.79509 8.79509ZM32.2906 26.0422C32.2906 30.0629 29.0207 33.3343 25 33.3343C20.9793 33.3343 17.7085 30.0629 17.7085 26.0422C17.7085 22.0215 20.9792 18.75 25 18.75C29.0207 18.75 32.2906 22.0214 32.2906 26.0422ZM2.08354 25C2.08354 24.7284 2.08959 24.4583 2.09877 24.1883C4.24413 24.585 8.96902 25.3418 15.6295 25.7554C15.6265 25.8515 15.6249 25.9461 15.6249 26.0423C15.6249 26.2941 15.6349 26.5444 15.6547 26.79C12.4374 26.587 9.7458 26.3077 7.71861 26.0545C5.03457 25.7203 3.10201 25.3831 2.08578 25.1894C2.0851 25.1267 2.08354 25.0641 2.08354 25ZM41.2049 41.2049C36.8759 45.5338 31.1218 47.9172 25 47.9172C18.8789 47.9172 13.1241 45.5338 8.79509 41.2049C5.02158 37.4314 2.72662 32.5714 2.20024 27.3316C4.44022 27.7436 9.28338 28.5064 16.0736 28.9062C17.2867 32.6797 20.8297 35.4172 25 35.4172C29.1702 35.4172 32.7132 32.6797 33.9263 28.9062C38.379 28.6437 41.9952 28.2257 44.5892 27.8535C43.9849 32.0556 42.0517 35.9375 38.9954 38.9954C35.257 42.7337 30.2856 44.7922 25 44.7922C24.7337 44.7922 24.4667 44.8944 24.2638 45.0974C23.8563 45.5048 23.8563 46.164 24.2638 46.5699C24.4667 46.7744 24.7337 46.875 25 46.875C30.8442 46.875 36.3373 44.5999 40.4679 40.4693C44.0003 36.9354 46.1747 32.4096 46.7317 27.5193C47.1361 27.4506 47.4916 27.3896 47.7999 27.3316C47.2733 32.5713 44.9783 37.4314 41.2049 41.2049Z" fill="black"/>
<path d="M25 20.8343C22.1283 20.8343 19.7914 23.1705 19.7914 26.0422C19.7914 28.9138 22.1283 31.2499 25 31.2499C27.8717 31.2499 30.2094 28.9138 30.2094 26.0422C30.2094 23.1705 27.8717 20.8343 25 20.8343ZM25 29.1672C23.2765 29.1672 21.8749 27.765 21.8749 26.0422C21.8749 24.3194 23.2764 22.9171 25 22.9171C26.7228 22.9171 28.1251 24.3194 28.1251 26.0422C28.1251 27.765 26.7228 29.1672 25 29.1672Z" fill="black"/>
</svg>
